#!OML:ASF F:\VICON\USERDATA\INSTALL\rory3\rory3.ASF
:FULLY-SPECIFIED
:DEGREES
344
root -0.794141 17.5882 11.9757 -181.414 4.75374 -177.659
lowerback 13.4666 2.60205 -0.863737
upperback 1.20686 3.53282 0.689217
thorax -6.36667 1.82891 0.543966
lowerneck -16.8224 -3.03949 -12.261
upperneck 35.3902 -6.91118 7.91204
head 16.1328 -4.57756 3.9999
rclavicle 3.21534e-014 6.16232e-015
rhumerus -36.521 -23.295 -73.9417
rradius 33.5996
rwrist 7.56659
rhand -20.7841 5.78817
rfingers 7.12502
rthumb 5.5828 -24.1183
lclavicle 3.21534e-014 6.16232e-015
lhumerus -34.8223 14.7863 67.3534
lradius 34.9967
lwrist -3.78942
lhand -20.0434 26.2204
lfingers 7.12502
lthumb 6.29793 56.1068
rfemur -2.38692 2.51576 10.5802
rtibia 23.7156
rfoot -16.904 0.558381
rtoes -18.3353
lfemur -4.87052 -14.7286 -1.01944
ltibia 19.7438
lfoot -6.84744 -4.58541
ltoes -26.1028
345
root -0.668824 17.6119 12.0139 -181.422 4.40964 -177.5
lowerback 13.6298 2.51712 -0.674117
upperback 1.2624 3.45319 0.657691
thorax -6.38355 1.7873 0.413098
lowerneck -17.0134 -3.05252 -12.2866
upperneck 35.4362 -6.93548 8.04676
head 16.2144 -4.56463 4.06107
rclavicle -5.49143e-015 -6.36111e-015
rhumerus -36.1537 -22.9368 -74.4138
rradius 33.7206
rwrist 7.3863
rhand -20.8073 6.41851
rfingers 7.12502
rthumb 5.56036 -23.4885
lclavicle -5.49143e-015 -6.36111e-015
lhumerus -34.7067 15.2915 67.1493
lradius 34.6963
lwrist -3.85804
lhand -19.7541 26.5084
lfingers 7.12502
lthumb 6.57717 56.3863
rfemur -2.33678 2.54498 11.2788
rtibia 23.6922
rfoot -16.8965 0.29809
rtoes -17.8337
lfemur -5.30175 -14.8459 -0.555083
ltibia 20.2795
lfoot -5.97197 -3.77887
ltoes -26.7306
346
root -0.547808 17.6314 12.0502 -181.432 4.02583 -177.521
lowerback 13.7151 2.4541 -0.667346
upperback 1.34317 3.37575 0.620092
thorax -6.34092 1.75208 0.382533
lowerneck -17.1907 -3.07997 -12.3017
upperneck 35.4726 -6.92699 8.05046
head 16.2766 -4.55065 4.0686
rclavicle -1.35919e-014 7.95139e-016
rhumerus -35.7742 -22.4584 -74.8545
rradius 33.9478
rwrist 7.15379
rhand -20.9459 6.62199
rfingers 7.12502
rthumb 5.4266 -23.2885
lclavicle -1.35919e-014 7.95139e-016
lhumerus -34.6646 15.749 67.1045
lradius 34.6231
lwrist -3.87625
lhand -19.3983 27.0388
lfingers 7.12502
lthumb 6.92066 56.9057
rfemur -2.27861 2.38763 11.7517
rtibia 23.674
rfoot -16.9386 -0.0223297
rtoes -18.0073
lfemur -5.76719 -14.8886 -0.378097
ltibia 20.8558
lfoot -5.17039 -2.89953
ltoes -26.886
347
root -0.426636 17.6558 12.0866 -181.41 3.601 -177.604
lowerback 13.7712 2.37627 -0.741461
upperback 1.35368 3.26089 0.58694
thorax -6.36104 1.69822 0.408905
lowerneck -17.1015 -3.04347 -12.3512
upperneck 35.4425 -6.82375 7.98321
head 16.223 -4.52105 4.06843
rclavicle -2.03754e-015 5.36719e-015
rhumerus -35.5806 -21.8802 -75.1954
rradius 34.3141
rwrist 7.13868
rhand -20.7553 6.49748
rfingers 7.12502
rthumb 5.61065 -23.4082
lclavicle -2.03754e-015 5.36719e-015
lhumerus -34.8067 16.0044 67.1162
lradius 34.6433
lwrist -3.86111
lhand -19.6673 26.6518
lfingers 7.12502
lthumb 6.66101 56.527
rfemur -2.25814 2.11305 12.1368
rtibia 23.675
rfoot -16.9153 -0.281155
rtoes -17.748
lfemur -6.33318 -14.8211 -0.319824
ltibia 21.4266
lfoot -4.20617 -2.00374
ltoes -25.7024
348
root -0.305877 17.6834 12.122 -181.428 3.10906 -177.705
lowerback 13.8562 2.27678 -0.852821
upperback 1.39155 3.1135 0.544612
thorax -6.36871 1.63045 0.452367
lowerneck -17.0984 -3.02081 -12.2919
upperneck 35.4367 -6.74169 7.85344
head 16.1983 -4.49033 4.01688
rclavicle 3.15571e-014 8.54774e-015
rhumerus -35.4586 -21.3287 -75.4993
rradius 34.7677
rwrist 7.25815
rhand -20.3662 6.24989
rfingers 7.12502
rthumb 5.9863 -23.6455
lclavicle 3.15571e-014 8.54774e-015
lhumerus -34.8439 16.1645 67.1549
lradius 34.5041
lwrist -3.79672
lhand -19.759 26.2914
lfingers 7.12502
lthumb 6.57251 56.1694
rfemur -2.1839 1.78014 12.4963
rtibia 23.6699
rfoot -16.9521 -0.488555
rtoes -17.0729
lfemur -6.83152 -14.9428 -0.36223
ltibia 22.0119
lfoot -3.12905 -0.816269
ltoes -26.6449
349
root -0.189358 17.7126 12.1549 -181.461 2.66578 -177.813
lowerback 13.9123 2.18086 -0.949451
upperback 1.47905 2.97739 0.507508
thorax -6.30693 1.56944 0.493458
lowerneck -17.1872 -3.02448 -12.3143
upperneck 35.4423 -6.71701 7.87373
head 16.2214 -4.47238 4.03571
rclavicle 1.43622e-014 7.95139e-016
rhumerus -35.3309 -20.5997 -75.8539
rradius 35.2913
rwrist 6.99635
rhand -20.1801 6.18645
rfingers 7.12502
rthumb 6.16592 -23.7038
lclavicle 1.43622e-014 7.95139e-016
lhumerus -34.8966 16.2468 67.299
lradius 34.5395
lwrist -3.64808
lhand -19.2472 27.1319
lfingers 7.12502
lthumb 7.06655 56.9939
rfemur -2.09926 1.44681 12.8279
rtibia 23.6084
rfoot -16.9548 -0.573596
rtoes -16.5474
lfemur -7.26533 -14.9205 -0.514633
ltibia 22.6628
lfoot -2.00999 0.531062
ltoes -28.4536
350
root -0.0789938 17.7407 12.1864 -181.54 2.20076 -177.926
lowerback 14.0113 2.06861 -0.945457
upperback 1.51856 2.82917 0.433231
thorax -6.31273 1.49816 0.438385
lowerneck -16.9631 -2.97307 -12.3182
upperneck 35.3259 -6.68308 7.9559
head 16.1062 -4.44873 4.07905
rclavicle 2.11457e-014 -3.77691e-015
rhumerus -35.2753 -20.0724 -76.101
rradius 35.6593
rwrist 6.87372
rhand -20.1263 6.44301
rfingers 7.12502
rthumb 6.21791 -23.4457
lclavicle 2.11457e-014 -3.77691e-015
lhumerus -35.0872 16.2003 67.3963
lradius 34.6709
lwrist -3.59492
lhand -19.0604 27.5622
lfingers 7.12502
lthumb 7.24682 57.4181
rfemur -1.9371 1.10981 13.1302
rtibia 23.4791
rfoot -16.8981 -0.676345
rtoes -16.1073
lfemur -7.68382 -14.7488 -0.788174
ltibia 23.4287
lfoot -1.00277 2.22783
ltoes -23.7157
351
root 0.0276094 17.7661 12.2144 -181.611 1.68245 -178.009
lowerback 14.1037 1.96111 -0.878527
upperback 1.51385 2.69285 0.35084
thorax -6.35922 1.42959 0.336559
lowerneck -16.6599 -2.90412 -12.2433
upperneck 35.2665 -6.64885 7.93759
head 15.9922 -4.43734 4.06431
rclavicle -4.65405e-014 -3.97569e-016
rhumerus -35.2579 -19.6762 -76.2707
rradius 35.8945
rwrist 6.81602
rhand -20.181 6.64861
rfingers 7.12502
rthumb 6.16509 -23.2417
lclavicle -4.65405e-014 -3.97569e-016
lhumerus -35.1397 15.9742 67.5525
lradius 34.5194
lwrist -3.52681
lhand -19.8358 26.8225
lfingers 7.12502
lthumb 6.49834 56.7028
rfemur -1.72996 0.915704 13.4625
rtibia 23.3272
rfoot -16.8084 -0.888408
rtoes -15.2129
lfemur -8.15248 -14.5611 -1.10808
ltibia 24.3071
lfoot -0.333582 4.38502
ltoes -16.0468
352
root 0.131381 17.7842 12.2427 -181.659 1.25098 -177.889
lowerback 14.2027 1.85367 -0.687506
upperback 1.49265 2.58249 0.382531
thorax -6.42813 1.37138 0.279775
lowerneck -16.5197 -2.89805 -12.2192
upperneck 35.3367 -6.65827 7.8165
head 15.9879 -4.46739 4.00587
rclavicle -6.70898e-016 4.77083e-015
rhumerus -35.2382 -19.1334 -76.4017
rradius 36.2046
rwrist 6.64612
rhand -20.4775 7.33311
rfingers 7.12502
rthumb 5.87878 -22.5653
lclavicle -6.70898e-016 4.77083e-015
lhumerus -35.2102 15.9181 67.7429
lradius 34.2856
lwrist -3.68221
lhand -20.4292 26.2048
lfingers 7.12502
lthumb 5.92549 56.102
rfemur -1.56066 0.981635 14.0252
rtibia 23.1819
rfoot -16.7196 -1.1589
rtoes -13.5258
lfemur -8.65587 -14.3395 -1.24106
ltibia 25.2811
lfoot 0.186199 6.59397
ltoes -12.1643
353
root 0.232695 17.7946 12.2743 -181.702 0.841756 -177.833
lowerback 14.2656 1.74333 -0.593748
upperback 1.51462 2.45681 0.415536
thorax -6.43547 1.30958 0.28455
lowerneck -16.4793 -2.92635 -12.2958
upperneck 35.3988 -6.70948 7.81701
head 16.0206 -4.507 4.01095
rclavicle -5.2181e-015 -2.5842e-015
rhumerus -35.099 -18.6205 -76.5159
rradius 36.4454
rwrist 6.5566
rhand -20.9166 9.06111
rfingers 7.12502
rthumb 5.45492 -20.8487
lclavicle -5.2181e-015 -2.5842e-015
lhumerus -35.3016 15.8218 68.0277
lradius 34.2597
lwrist -3.58077
lhand -19.5675 26.6165
lfingers 7.12502
lthumb 6.75736 56.4887
rfemur -1.44447 1.00229 14.5025
rtibia 23.0575
rfoot -16.6441 -1.43517
rtoes -12.4731
lfemur -9.1747 -13.9456 -1.49084
ltibia 26.2981
lfoot 0.362328 8.44035
ltoes -9.90036
